<svg t="1601358544933" class="icon" viewBox="0 0 1024 1024" version="1.1" xmlns="http://www.w3.org/2000/svg" p-id="1392" width="48" height="48"><path d="M288 106.666667A181.333333 181.333333 0 0 1 469.333333 288V469.333333H288a181.333333 181.333333 0 1 1 0-362.666666z m0 448H469.333333v181.333333A181.333333 181.333333 0 1 1 288 554.666667z m448-448a181.333333 181.333333 0 1 1 0 362.666666H554.666667V288a181.333333 181.333333 0 0 1 181.333333-181.333333zM554.666667 554.666667h181.333333A181.333333 181.333333 0 1 1 554.666667 736V554.666667z" p-id="1393" fill="#ffffff"></path></svg>