<svg t="1601353046638" class="icon" viewBox="0 0 1024 1024" version="1.1" xmlns="http://www.w3.org/2000/svg" p-id="1222" width="48" height="48"><path d="M733.866667 853.333333l76.8 64v21.333334H213.333333v-21.333334L290.133333 853.333333H213.333333a85.333333 85.333333 0 0 1-85.333333-85.333333V298.666667a170.666667 170.666667 0 0 1 170.666667-170.666667h426.666666a170.666667 170.666667 0 0 1 170.666667 170.666667v469.333333a85.333333 85.333333 0 0 1-85.333333 85.333333h-76.8zM213.333333 298.666667v170.666666h597.333334V298.666667H213.333333z m298.666667 469.333333a85.333333 85.333333 0 1 0 0-170.666667 85.333333 85.333333 0 0 0 0 170.666667z" p-id="1223" fill="#ffffff"></path></svg>