<svg t="1601347932355" class="icon" viewBox="0 0 1024 1024" version="1.1" xmlns="http://www.w3.org/2000/svg" p-id="1895"
     width="48" height="48">
    <path id="svg_2" fill="#ffffff" p-id="1113" d="m748.49524,385.21905l-397.40953,0l90.20953,-90.20953c7.31428,-7.31428 7.31428,-17.06666 0,-21.94285l-21.94286,-21.94286c-2.43809,-7.31429 -17.06667,-7.31429 -21.94286,0l-134.09523,134.09524c-2.4381,2.43809 -4.87619,4.87619 -4.87619,9.75238c-2.4381,2.43809 -2.4381,4.87619 -2.4381,7.31428l0,31.69524c0,9.75238 7.31429,17.06667 17.06667,17.06667l480.30476,0c9.75238,0 17.06667,-7.31429 17.06667,-17.06667l0,-31.69524c-4.87619,-12.19047 -12.19048,-17.06666 -21.94286,-17.06666z"/>
    <path id="svg_3" fill="#ffffff" p-id="1114" d="m753.37143,512l-480.30476,0c-9.75238,0 -17.06667,7.31429 -17.06667,12.19048l0,31.69523c0,9.75239 0,19.50477 31.69524,19.50477l375.46666,0l-80.45714,78.01904c-7.31428,7.31429 -7.31428,17.06667 0,21.94286l21.94286,21.94286c7.31429,7.31428 17.06667,7.31428 21.94286,0l131.65714,-124.34286c9.75238,-4.87619 9.75238,-12.19047 9.75238,-14.62857l0,-31.69524c-2.43809,-7.31428 -9.75238,-14.62857 -14.62857,-14.62857z"/>
</svg>